HIERARCHY
ROOT pelvis
{
	OFFSET 0.00 0.00 0.00
	CHANNELS 6 Xposition Yposition Zposition Xrotation Yrotation Zrotation
	JOINT lfemur
	{
		OFFSET 0.00000 4.00987 0.00000
		CHANNELS 3 Xrotation Yrotation Zrotation
		JOINT ltibia
		{
			OFFSET 0.00000 0.00000 -16.96567
			CHANNELS 3 Xrotation Yrotation Zrotation
			JOINT lfoot
			{
				OFFSET 0.00000 0.00000 -15.14977
				CHANNELS 3 Xrotation Yrotation Zrotation
				JOINT ltoes
				{
					OFFSET 4.80706 0.00000 -0.34192
					CHANNELS 3 Xrotation Yrotation Zrotation
				}
			}
		}
	}
	JOINT rfemur
	{
		OFFSET 0.00000 -4.00987 0.00000
		CHANNELS 3 Xrotation Yrotation Zrotation
		JOINT rtibia
		{
			OFFSET 0.00000 0.00000 -17.37260
			CHANNELS 3 Xrotation Yrotation Zrotation
			JOINT rfoot
			{
				OFFSET 0.00000 0.00000 -14.74017
				CHANNELS 3 Xrotation Yrotation Zrotation
				JOINT rtoes
				{
					OFFSET 4.34786 0.00000 -1.10103
					CHANNELS 3 Xrotation Yrotation Zrotation
				}
			}
		}
	}
	JOINT lowerback
	{
		OFFSET -1.96850 0.00000 4.19271
		CHANNELS 3 Xrotation Yrotation Zrotation
		JOINT upperback
		{
			OFFSET 0.46383 0.00000 7.28365
			CHANNELS 3 Xrotation Yrotation Zrotation
			JOINT lclavicle
			{
				OFFSET 0.00000 0.00000 8.84290
				CHANNELS 3 Xrotation Yrotation Zrotation
				JOINT lhumerus
				{
					OFFSET 0.00000 5.32652 -2.91730
					CHANNELS 3 Xrotation Yrotation Zrotation
					JOINT lradius
					{
						OFFSET 0.00000 0.00000 -11.04679
						CHANNELS 3 Xrotation Yrotation Zrotation
						JOINT lhand
						{
							OFFSET 0.00000 0.00000 -7.95329
							CHANNELS 3 Xrotation Yrotation Zrotation
						}
					}
				}
			}
			JOINT rclavicle
			{
				OFFSET 0.00000 0.00000 8.84290
				CHANNELS 3 Xrotation Yrotation Zrotation
				JOINT rhumerus
				{
					OFFSET 0.00000 -5.91097 -2.78771
					CHANNELS 3 Xrotation Yrotation Zrotation
					JOINT rradius
					{
						OFFSET 0.00000 0.00000 -11.28954
						CHANNELS 3 Xrotation Yrotation Zrotation
						JOINT rhand
						{
							OFFSET 0.00000 0.00000 -7.95361
							CHANNELS 3 Xrotation Yrotation Zrotation
						}
					}
				}
			}
			JOINT LowerNeck
			{
				OFFSET 0.00000 0.00000 8.84290
				CHANNELS 3 Xrotation Yrotation Zrotation
				JOINT Neck
				{
					OFFSET -0.14998 -1.07471 3.07123
					CHANNELS 3 Xrotation Yrotation Zrotation
				}
			}
		}
	}
}
MOTION
Frames: 19
Frame Time: 0.008342
 38.9362 0.0014 34.9863 7.1694 -4.0444 119.9413 -0.9185 -22.3832 -3.5424 0.0000 47.9364 23.5107 -0.2674 6.5108 -0.9612 -0.0000 -13.2274 0.0000 6.4564 5.1702 15.5708 0.0000 6.4878 -35.4489 1.3997 -3.5619 5.3090 0.0000 -5.1173 -0.0000 8.6652 -2.5339 4.7990 -0.3480 30.4060 3.2203 -0.5393 -0.0000 -1.9484 15.1560 -22.1432 -10.0840 0.0000 -13.1428 -14.3754 -7.1558 3.1632 -0.0000 0.4536 0.0000 4.2406 -30.1380 -21.7065 6.7134 0.0000 -22.5926 12.1944 -7.4405 5.6446 0.0000 -1.6769 -2.7015 1.3780 4.2035 -38.7595 13.1899
 38.8351 0.2667 34.9642 7.1171 -4.0653 120.2156 -0.8002 -22.7518 -3.1864 0.0000 45.8547 23.6661 -0.3086 6.4709 -1.1096 0.0000 -13.2219 0.0000 6.5282 5.8011 15.4391 0.0000 6.0919 -35.5528 1.3631 -3.9273 5.1763 -0.0000 -5.1425 -0.0000 8.7866 -2.5538 4.9606 -0.4568 30.4177 3.4676 -0.6241 -0.0000 -2.0421 15.3155 -21.8179 -10.0224 0.0000 -13.9378 -13.9099 -6.6316 3.0440 0.0000 0.4303 0.0000 4.2412 -30.6480 -21.7744 6.5617 -0.0000 -22.6475 12.2466 -6.9317 5.7500 -0.0000 -1.8280 -2.7174 1.2215 4.1637 -38.7177 12.9364
 38.7323 0.5426 34.9417 7.2784 -4.0839 120.4935 -0.5163 -22.8891 -2.7576 0.0000 43.7423 23.9099 -0.4182 6.4912 -1.5035 0.0000 -13.1977 -0.0000 6.7175 6.7076 15.6819 0.0000 5.5200 -35.7067 1.2312 -4.1737 4.6780 0.0000 -5.0038 0.0000 8.9877 -2.3756 5.0588 -0.5463 30.4168 3.7344 -0.6293 0.0000 -2.1624 15.3423 -21.4956 -9.9187 0.0000 -14.6581 -13.4132 -5.8971 2.8403 -0.0000 0.3481 -0.0000 4.2200 -31.0738 -21.8963 6.3890 -0.0000 -22.6398 12.3010 -6.3698 5.9329 -0.0000 -2.1166 -2.7144 0.9828 4.3907 -38.6882 12.8340
 38.6257 0.8071 34.9096 7.2196 -4.1230 120.7153 -0.3526 -23.1604 -2.3773 0.0000 41.5166 23.8042 -0.4169 6.6115 -1.4979 -0.0000 -13.4528 -0.0000 6.8213 7.1863 15.3541 0.0000 5.4141 -35.7171 1.2346 -4.6603 4.6983 0.0000 -4.9942 0.0000 9.0992 -2.4053 5.2253 -0.6369 30.4041 3.8776 -0.7093 -0.0000 -2.1624 15.4603 -21.1466 -9.9011 0.0000 -15.4237 -12.9546 -5.3075 2.7540 -0.0000 0.3223 -0.0000 4.2962 -31.5318 -22.0166 6.3276 -0.0000 -22.5601 12.4123 -5.9140 6.0592 -0.0000 -2.2405 -2.6742 0.8464 4.3890 -38.6534 12.7237
 38.5182 1.0733 34.8753 7.2003 -4.1880 120.9283 -0.1216 -23.3840 -1.9905 0.0000 39.2766 23.7658 -0.4403 6.8234 -1.5795 -0.0000 -13.5929 -0.0000 6.9711 7.7137 15.2859 0.0000 5.2496 -35.8100 1.1962 -5.1067 4.5581 0.0000 -4.9669 0.0000 9.2257 -2.4169 5.3501 -0.7092 30.3941 4.0134 -0.7555 -0.0000 -2.1624 15.4992 -20.7843 -9.8499 0.0000 -16.1409 -12.5856 -4.4437 2.6679 -0.0000 0.2788 0.0000 4.3850 -31.9266 -22.1741 6.2565 -0.0000 -22.4098 12.6431 -5.8498 6.0538 -0.0000 -2.4243 -2.5798 0.6167 4.5531 -38.6888 12.7484
 38.4081 1.3424 34.8387 7.2269 -4.2751 121.1339 0.1773 -23.5471 -1.5527 0.0000 37.0179 23.6606 -0.4397 7.0839 -1.5745 0.0000 -13.6570 -0.0000 7.1750 8.2568 15.3355 0.0000 5.1260 -35.9727 1.1455 -5.5580 4.3705 0.0000 -4.9228 -0.0000 9.3740 -2.4106 5.4480 -0.7593 30.3784 4.1281 -0.7992 -0.0000 -2.1662 15.5165 -20.4008 -9.7378 0.0000 -16.8407 -12.1449 -3.6981 2.6683 -0.0000 0.2340 -0.0000 4.5026 -32.2861 -22.3647 6.1805 0.0000 -22.1368 12.9841 -6.0733 6.0253 -0.0000 -2.6194 -2.4237 0.3112 4.8281 -38.7417 12.9733
 38.2966 1.6079 34.7986 7.2289 -4.3762 121.3122 0.4788 -23.6827 -1.1561 0.0000 34.6751 23.5429 -0.4172 7.4041 -1.4904 0.0000 -13.4558 0.0000 7.3777 8.6987 15.2726 0.0000 5.1485 -36.1014 1.1314 -6.0449 4.3223 -0.0000 -4.9542 -0.0000 9.5000 -2.4194 5.5448 -0.7907 30.3696 4.2184 -0.8440 0.0000 -2.1495 15.4994 -20.0127 -9.6616 0.0000 -17.5160 -11.8490 -2.6593 2.5772 0.0000 0.1831 -0.0000 4.6048 -32.6184 -22.5965 6.1301 0.0000 -21.9084 13.2395 -6.3563 6.0390 -0.0000 -2.8118 -2.3023 0.1059 5.0552 -38.8068 13.1345
 38.1811 1.8726 34.7559 7.2266 -4.4975 121.4878 0.7899 -23.7958 -0.7961 0.0000 32.2790 23.5938 -0.4198 7.8377 -1.4952 0.0000 -13.2203 0.0000 7.6009 9.1180 15.3151 0.0000 5.1971 -36.2539 1.0953 -6.5371 4.1897 0.0000 -4.9473 0.0000 9.6295 -2.4539 5.6178 -0.8171 30.3744 4.3114 -0.8902 0.0000 -2.1283 15.4586 -19.6402 -9.5478 -0.0000 -18.1423 -11.5226 -1.7441 2.4637 -0.0000 0.1477 -0.0000 4.6968 -32.9449 -22.8671 6.0168 -0.0000 -21.6455 13.3945 -6.5611 6.1035 -0.0000 -2.9994 -2.2239 -0.0793 5.2423 -38.8408 13.2465
 38.0611 2.1359 34.7109 7.1906 -4.6257 121.6412 1.0936 -23.8826 -0.4593 0.0000 29.7945 23.7574 -0.4362 8.3850 -1.5471 0.0000 -12.9440 0.0000 7.8102 9.4521 15.2679 0.0000 5.3629 -36.4093 1.0943 -7.0311 4.1911 0.0000 -5.0523 -0.0000 9.7316 -2.5142 5.6897 -0.8317 30.3700 4.3888 -0.9374 -0.0000 -2.0862 15.3947 -19.2665 -9.4739 0.0000 -18.7107 -11.1286 -0.7943 2.2641 0.0000 0.1325 -0.0000 4.7818 -33.2667 -23.1582 5.8600 0.0000 -21.3983 13.4366 -6.6224 6.3058 -0.0000 -3.1689 -2.2142 -0.1822 5.3317 -38.8064 13.2733
 37.9379 2.3971 34.6647 7.1693 -4.7741 121.8180 1.3890 -23.9332 -0.2738 0.0000 27.2587 24.2856 -0.5033 9.0482 -1.7761 0.0000 -12.7719 -0.0000 8.0495 9.8099 15.4605 0.0000 5.4809 -36.6275 1.0404 -7.5029 3.9887 0.0000 -4.9882 0.0000 9.8540 -2.5794 5.7384 -0.8491 30.3906 4.4596 -0.9893 0.0000 -2.0521 15.3167 -18.9277 -9.3163 0.0000 -19.2624 -10.6959 0.0785 2.2125 -0.0000 0.1221 0.0000 4.8620 -33.5660 -23.4618 5.6275 -0.0000 -21.1399 13.3714 -6.7421 6.3574 -0.0000 -3.3322 -2.1990 -0.2605 5.4245 -38.8713 13.2648
 37.8130 2.6538 34.6187 7.1015 -4.8978 121.9960 1.6697 -23.9600 0.0598 0.0000 24.6316 24.4026 -0.4497 9.7453 -1.5782 0.0000 -12.6937 -0.0000 8.2589 10.0367 15.4602 0.0000 5.8207 -36.8844 1.0467 -8.0904 4.0181 -0.0000 -4.9101 0.0000 9.8915 -2.6282 5.7882 -0.8297 30.3319 4.4802 -1.0499 0.0000 -2.0001 15.2161 -18.5742 -9.0531 -0.0000 -19.7472 -10.4113 0.7660 2.1515 -0.0000 0.1777 0.0000 4.9680 -33.8783 -23.7661 5.2751 -0.0000 -20.8241 13.4046 -6.7335 6.4333 -0.0000 -3.3887 -2.1639 -0.2566 5.3023 -38.8968 13.1968
 37.6794 2.9130 34.5699 7.0323 -5.0434 122.1781 1.8962 -23.9162 0.0573 0.0000 21.9189 25.2781 -0.5208 10.6211 -1.8149 0.0000 -12.7840 -0.0000 8.4719 10.2994 15.5774 0.0000 6.0709 -37.1027 1.0119 -8.5900 3.8883 -0.0000 -4.8866 0.0000 9.9532 -2.7387 5.8179 -0.8124 30.3267 4.4912 -1.1219 -0.0000 -1.9416 15.1189 -18.2419 -8.8544 0.0000 -20.1718 -10.0021 1.4292 2.1000 0.0000 0.2021 0.0000 5.0656 -34.1319 -24.0594 4.9926 -0.0000 -20.5820 13.2887 -6.8802 6.5819 -0.0000 -3.5152 -2.1472 -0.2760 5.3256 -38.9281 13.1895
 37.5403 3.1725 34.5205 6.9653 -5.1970 122.3870 2.1126 -23.8158 -0.0520 0.0000 19.1584 26.2922 -0.5668 11.5067 -1.9604 0.0000 -12.9926 -0.0000 8.6960 10.5849 15.8297 0.0000 6.2745 -37.3184 0.9315 -9.0384 3.5819 0.0000 -4.8938 -0.0000 10.0148 -2.8657 5.8076 -0.8075 30.3303 4.5233 -1.2166 0.0000 -1.8711 15.0203 -17.9634 -8.6196 -0.0000 -20.4714 -9.6812 2.0617 1.9544 -0.0000 0.2385 0.0000 5.1476 -34.3471 -24.3538 4.7169 -0.0000 -20.3348 13.0805 -7.2409 6.8272 -0.0000 -3.6178 -2.1666 -0.3171 5.3737 -38.9167 13.2172
 37.3961 3.4323 34.4713 6.9004 -5.3543 122.6168 2.3292 -23.6575 -0.1585 0.0000 16.3734 27.2284 -0.5493 12.2563 -1.8872 0.0000 -12.9154 0.0000 8.9258 10.8731 16.1213 0.0000 6.4756 -37.5000 0.8271 -9.4428 3.1822 -0.0000 -4.8710 0.0000 10.0655 -2.9948 5.7658 -0.7936 30.3216 4.5694 -1.3050 -0.0000 -1.8026 14.8872 -17.7409 -8.3957 -0.0000 -20.6101 -9.3697 2.5661 1.9088 0.0000 0.2843 -0.0000 5.1972 -34.5348 -24.6447 4.4401 0.0000 -20.1022 12.7923 -7.5227 7.0049 -0.0000 -3.7089 -2.1954 -0.3571 5.3733 -38.8991 13.2204
 37.2469 3.6929 34.4222 6.8404 -5.5112 122.8678 2.5467 -23.4414 -0.1833 0.0000 13.5867 28.0793 -0.4856 12.8108 -1.6600 0.0000 -12.6585 -0.0000 9.1595 11.1571 16.3787 0.0000 6.6968 -37.6150 0.7098 -9.7815 2.7321 0.0000 -4.9378 0.0000 10.1000 -3.1273 5.7108 -0.7636 30.3131 4.6252 -1.3840 0.0000 -1.7448 14.7206 -17.5652 -8.1744 0.0000 -20.6264 -9.1041 3.0454 1.9360 0.0000 0.3358 0.0000 5.2208 -34.6933 -24.9151 4.1604 -0.0000 -19.9066 12.4053 -7.8085 7.2038 -0.0000 -3.7804 -2.2388 -0.3949 5.3371 -38.8851 13.1910
 37.0883 3.9563 34.3733 6.7877 -5.6526 123.0948 2.7243 -23.1434 -0.4612 0.0000 10.8316 29.3316 -0.4305 13.0994 -1.4675 0.0000 -12.2616 0.0000 9.3671 11.4655 16.6706 0.0000 6.9168 -37.6868 0.5828 -10.0333 2.2438 0.0000 -5.1682 0.0000 10.1246 -3.2486 5.6484 -0.7471 30.3002 4.7350 -1.4802 0.0000 -1.6536 14.5279 -17.4404 -7.9855 -0.0000 -20.5192 -8.9458 3.5610 1.9925 -0.0000 0.3751 -0.0000 5.1960 -34.7882 -25.1628 3.9395 0.0000 -19.7392 12.0117 -8.1505 7.3432 -0.0000 -3.9294 -2.3311 -0.4313 5.3923 -38.8238 13.1363
 36.9257 4.2237 34.3236 6.7421 -5.7689 123.3305 2.9198 -22.8236 -0.3346 0.0000 8.2311 30.3284 -0.3660 13.0635 -1.2481 0.0000 -11.9900 -0.0000 9.5651 11.7471 16.7663 0.0000 7.2575 -37.6041 0.4669 -10.3328 1.7984 0.0000 -5.2985 -0.0000 10.1052 -3.3618 5.6307 -0.6916 30.2747 4.7753 -1.5239 0.0000 -1.6092 14.3113 -17.2717 -7.7851 0.0000 -20.3861 -8.7796 3.9919 2.0332 -0.0000 0.4293 0.0000 5.2019 -34.8421 -25.3507 3.6863 0.0000 -19.6492 11.6267 -8.5577 7.6431 -0.0000 -3.9800 -2.3682 -0.4457 5.3299 -38.8182 13.0599
 36.7574 4.4943 34.2737 6.6979 -5.8570 123.5497 3.0991 -22.5202 0.2483 0.0000 5.8812 31.2631 -0.3639 12.7436 -1.2446 0.0000 -12.0244 -0.0000 9.7358 12.0010 16.6777 0.0000 7.7143 -37.3548 0.3638 -10.6596 1.4017 0.0000 -5.3568 0.0000 10.0524 -3.4590 5.6474 -0.6340 30.2478 4.7970 -1.5605 0.0000 -1.5727 14.1137 -17.0940 -7.5751 0.0000 -20.2568 -8.6008 4.2368 2.1208 0.0000 0.4921 -0.0000 5.2092 -34.8491 -25.4914 3.4522 0.0000 -19.6471 11.2475 -9.0256 7.9950 -0.0000 -4.0204 -2.4225 -0.4667 5.3000 -38.8161 13.0060
 36.5842 4.7688 34.2223 6.6682 -5.9306 123.7112 3.2959 -22.4099 1.8290 -0.0000 4.1957 32.1619 -0.5947 12.1207 -2.0457 0.0000 -12.2675 -0.0000 9.8782 12.2041 16.2533 0.0000 8.3303 -36.9783 0.3385 -10.9170 1.3045 0.0000 -5.6613 0.0000 9.9934 -3.4938 5.7363 -0.5876 30.1526 4.8203 -1.5858 0.0000 -1.5290 13.9078 -16.9213 -7.3152 -0.0000 -20.0528 -8.4872 4.2940 2.2775 0.0000 0.5604 -0.0000 5.1591 -34.7754 -25.6071 3.3318 -0.0000 -19.6667 10.7840 -9.6831 8.1798 -0.0000 -4.0364 -2.4073 -0.4518 5.2746 -38.9025 12.9281
